<?xml version="1.0" encoding="iso-8859-1"?>
<!-- Generator: Adobe Illustrator 19.0.0, SVG Export Plug-In . SVG Version: 6.00 Build 0)  -->
<svg version="1.1" id="Capa_1" xmlns="http://www.w3.org/2000/svg" xmlns:xlink="http://www.w3.org/1999/xlink" x="0px" y="0px"
	 viewBox="0 0 503.163 503.163" style="enable-background:new 0 0 503.163 503.163;" xml:space="preserve">
<g>
	<g>
		<path d="M493.803,436.046L242.219,184.462c-4.16-4.16-10.923-4.16-15.083,0c-4.16,4.16-4.16,10.923,0,15.083L478.72,451.128
			c4.16,4.16,4.16,10.923,0,15.083l-1.835,1.835c-4.16,4.16-10.923,4.16-15.083,0L242.219,248.462c-4.16-4.16-10.923-4.16-15.083,0
			c-4.16,4.16-4.16,10.923,0,15.083L446.699,483.15c6.251,6.229,14.443,9.344,22.635,9.344c8.213,0,16.384-3.115,22.635-9.365
			l1.835-1.835C506.283,468.814,506.283,448.526,493.803,436.046z"/>
	</g>
</g>
<g>
	<g>
		<path d="M270.869,118.2l-67.136-28.779l9.515-66.56c0.576-4.181-1.323-8.299-4.885-10.539c-3.563-2.261-8.107-2.176-11.605,0.149
			l-58.069,38.72l-58.091-38.72c-3.499-2.347-8.043-2.411-11.605-0.149c-3.563,2.24-5.483,6.357-4.885,10.517L73.6,89.443
			L6.464,118.222C2.539,119.886,0,123.747,0,128.014s2.56,8.107,6.485,9.792L73.6,166.584l-9.515,66.581
			c-0.576,4.181,1.323,8.299,4.885,10.539c3.563,2.261,8.107,2.176,11.605-0.149l58.091-38.72l58.091,38.72
			c1.792,1.195,3.84,1.792,5.909,1.792c0.085,0,0.149,0,0.213-0.021c6.187-0.064,10.88-4.693,10.88-10.667
			c0-1.579-0.341-3.051-0.939-4.395l-9.088-63.68l67.136-28.8c3.925-1.664,6.464-5.525,6.464-9.792S274.795,119.886,270.869,118.2z
			 M187.797,150.2c-4.437,1.899-7.04,6.528-6.357,11.307l7.275,51.072l-44.139-29.44c-1.792-1.195-3.84-1.792-5.909-1.792
			c-2.048,0-4.117,0.576-5.931,1.792l-44.139,29.44l7.296-51.051c0.683-4.779-1.92-9.408-6.357-11.307L37.76,128.014l51.819-22.208
			c4.437-1.899,7.04-6.528,6.357-11.307L88.64,43.448l44.139,29.44c3.584,2.389,8.256,2.389,11.84,0l44.139-29.44l-7.296,51.051
			c-0.683,4.779,1.92,9.408,6.357,11.307l51.755,22.187L187.797,150.2z"/>
	</g>
</g>
<g>
	<g>
		<path d="M139.307,10.68h-0.213c-5.888,0-10.56,4.779-10.56,10.667s4.885,10.667,10.773,10.667c5.909,0,10.667-4.779,10.667-10.667
			S145.195,10.68,139.307,10.68z"/>
	</g>
</g>
<g>
	<g>
		<path d="M245.973,53.347h-0.213c-5.888,0-10.56,4.779-10.56,10.667s4.885,10.667,10.773,10.667
			c5.909,0,10.667-4.779,10.667-10.667S251.861,53.347,245.973,53.347z"/>
	</g>
</g>
<g>
	<g>
		<path d="M32.64,53.347h-0.213c-5.888,0-10.56,4.779-10.56,10.667S26.752,74.68,32.64,74.68c5.909,0,10.667-4.779,10.667-10.667
			S38.528,53.347,32.64,53.347z"/>
	</g>
</g>
<g>
	<g>
		<path d="M139.307,224.014h-0.213c-5.888,0-10.56,4.779-10.56,10.667s4.885,10.667,10.773,10.667
			c5.909,0,10.667-4.779,10.667-10.667S145.195,224.014,139.307,224.014z"/>
	</g>
</g>
<g>
	<g>
		<path d="M32.64,181.347h-0.213c-5.888,0-10.56,4.779-10.56,10.667s4.885,10.667,10.773,10.667c5.909,0,10.667-4.779,10.667-10.667
			S38.528,181.347,32.64,181.347z"/>
	</g>
</g>
<g>
	<g>
		<path d="M391.531,344.483c-4.16-4.16-10.923-4.16-15.083,0l-21.333,21.333c-4.16,4.16-4.16,10.923,0,15.083
			c2.091,2.069,4.821,3.115,7.552,3.115s5.461-1.045,7.531-3.115l21.333-21.333C395.691,355.406,395.691,348.643,391.531,344.483z"
			/>
	</g>
</g>
</svg>
