<?xml version="1.0" encoding="iso-8859-1"?>
<!-- Generator: Adobe Illustrator 19.0.0, SVG Export Plug-In . SVG Version: 6.00 Build 0)  -->
<svg version="1.1" id="Capa_1" xmlns="http://www.w3.org/2000/svg" xmlns:xlink="http://www.w3.org/1999/xlink" x="0px" y="0px"
	 viewBox="0 0 512 512" style="enable-background:new 0 0 512 512;" xml:space="preserve">
<g>
	<g>
		<g>
			<path d="M0,0v512h512V0H0z M497,497H15V15h482V497z" />
			<polygon points="472,148.172 487,148.172 487,25 436.894,25 436.894,40 472,40" />
			<rect x="472" y="175.23" width="15" height="14.714" />
			<rect x="472" y="223.64" width="15" height="82.36" />
			<polygon points="57,472 40,472 40,371 25,371 25,487 57,487" />
			<rect x="25" y="314" width="15" height="16" />
			<polygon points="40,40 68.999,40 68.999,25 25,25 25,60.994 40,60.994" />
			<path d="M43.755,134.165c0,8.969,3.991,17.365,10.949,23.036c5.277,4.301,11.938,6.669,18.756,6.669h11.342v271.278
				c0,6.571,2.559,12.749,7.206,17.397c4.646,4.646,10.825,7.206,17.396,7.206c13.565,0,24.602-11.037,24.602-24.602V163.87h11.341
				c16.38,0,29.706-13.326,29.706-29.706c0-6.836-2.38-13.511-6.702-18.795c-5.671-6.934-14.055-10.91-23.004-10.91h-11.341V76.816
				c0-9.909-5.897-18.805-15.022-22.665c-3.038-1.285-6.261-1.937-9.58-1.937c-13.565,0-24.602,11.037-24.602,24.602v27.643H73.461
				C57.081,104.459,43.755,117.785,43.755,134.165z M119.006,435.148c0,5.295-4.308,9.602-9.602,9.602
				c-2.565,0-4.976-0.999-6.789-2.811c-1.813-1.814-2.813-4.226-2.813-6.791V163.87h19.204V435.148z M99.803,76.816
				c0-5.294,4.307-9.602,9.602-9.602c1.3,0,2.556,0.253,3.736,0.752c3.563,1.507,5.866,4.981,5.866,8.85v27.643H99.803V76.816z
				 M73.461,119.459h11.342h49.203h11.341c4.431,0,8.583,1.971,11.393,5.406c2.167,2.65,3.313,5.866,3.313,9.3
				c0,8.109-6.597,14.706-14.706,14.706h-11.341H84.803H73.461c-3.424,0-6.634-1.14-9.28-3.297
				c-3.448-2.81-5.425-6.968-5.425-11.409C58.756,126.056,65.353,119.459,73.461,119.459z" />
			<path d="M345.85,403.934c5.277,4.301,11.938,6.67,18.757,6.67h13.289v24.544c0,6.571,2.559,12.75,7.206,17.397
				c4.646,4.646,10.825,7.206,17.396,7.206c13.565,0,24.602-11.037,24.602-24.602v-24.544h9.394
				c16.38,0,29.705-13.326,29.705-29.706c0-6.836-2.38-13.512-6.701-18.795c-5.67-6.934-14.055-10.911-23.004-10.911H427.1V76.816
				c0-9.909-5.897-18.805-15.023-22.665c-3.037-1.285-6.261-1.937-9.579-1.937c-13.565,0-24.602,11.037-24.602,24.602v274.377
				h-13.289c-16.38,0-29.706,13.326-29.706,29.706C334.901,389.868,338.892,398.264,345.85,403.934z M412.1,435.148
				c0,5.295-4.308,9.602-9.602,9.602c-2.565,0-4.976-0.999-6.79-2.812c-1.814-1.814-2.813-4.225-2.813-6.79v-24.544H412.1V435.148z
				 M392.896,76.816c0-5.294,4.308-9.602,9.602-9.602c1.299,0,2.556,0.253,3.735,0.752c3.564,1.507,5.867,4.981,5.867,8.85v274.377
				h-19.204V76.816z M364.607,366.192h13.289H427.1h9.394c4.431,0,8.583,1.97,11.392,5.406c2.168,2.65,3.313,5.866,3.313,9.3
				c0,8.109-6.597,14.706-14.705,14.706H427.1h-49.204h-13.289c-3.425,0-6.634-1.14-9.281-3.297
				c-3.448-2.81-5.425-6.968-5.425-11.408C349.901,372.79,356.498,366.192,364.607,366.192z" />
			<polygon points="286.103,437.098 263.451,437.098 263.451,401.755 286.103,401.755 286.103,386.755 263.451,386.755
				263.451,353.963 286.103,353.963 286.103,338.963 263.451,338.963 263.451,306.172 286.103,306.172 286.103,291.172
				263.451,291.172 263.451,258.38 286.103,258.38 286.103,243.38 263.451,243.38 263.451,210.589 286.103,210.589 286.103,195.589
				263.451,195.589 263.451,162.797 286.103,162.797 286.103,147.797 263.451,147.797 263.451,115.006 286.103,115.006
				286.103,100.006 263.451,100.006 263.451,67.214 286.103,67.214 286.103,52.214 225.799,52.214 225.799,67.214 248.451,67.214
				248.451,100.006 225.799,100.006 225.799,115.006 248.451,115.006 248.451,147.797 225.799,147.797 225.799,162.797
				248.451,162.797 248.451,195.589 225.799,195.589 225.799,210.589 248.451,210.589 248.451,243.38 225.799,243.38
				225.799,258.38 248.451,258.38 248.451,291.172 225.799,291.172 225.799,306.172 248.451,306.172 248.451,338.963
				225.799,338.963 225.799,353.963 248.451,353.963 248.451,386.755 225.799,386.755 225.799,401.755 248.451,401.755
				248.451,437.098 225.799,437.098 225.799,452.098 286.103,452.098" />
		</g>
	</g>
</g>
</svg>
