<?xml version="1.0" encoding="iso-8859-1"?>
<!-- Generator: Adobe Illustrator 19.0.0, SVG Export Plug-In . SVG Version: 6.00 Build 0)  -->
<svg version="1.1" id="Capa_1" xmlns="http://www.w3.org/2000/svg" xmlns:xlink="http://www.w3.org/1999/xlink" x="0px" y="0px"
	 viewBox="0 0 512 512" style="enable-background:new 0 0 512 512;" xml:space="preserve">
<g>
	<g>
		<circle cx="256.5" cy="217.411" r="7.5"/>
	</g>
</g>
<g>
	<g>
		<path d="M506.776,67.785c-3.321-2.876-7.718-4.167-12.065-3.54L378.963,80.912H133.037L18.761,64.457
			c-4.721-0.681-9.489,0.721-13.092,3.841C2.066,71.419,0,75.943,0,80.709v221.406c0,4.767,2.066,9.29,5.669,12.411
			c3.005,2.604,6.824,4.009,10.747,4.009c0.779,0,1.563-0.055,2.345-0.168l114.276-16.456h115.872l-0.392,131H215.5
			c-4.143,0-7.5,3.358-7.5,7.5c0,4.142,3.357,7.5,7.5,7.5h82c4.143,0,7.5-3.358,7.5-7.5c0-4.142-3.357-7.5-7.5-7.5h-33.983
			l0.392-131h115.054l115.748,16.667c0.721,0.104,1.442,0.155,2.161,0.155c3.614,0,7.135-1.296,9.904-3.695
			c3.319-2.876,5.224-7.045,5.224-11.438V79.222C512,74.83,510.096,70.661,506.776,67.785z M248,261.912v-10.761
			c2.762,0.491,5.599,0.761,8.5,0.761s5.738-0.271,8.5-0.761v10.761H248z M290,201.912v1.5c0,18.472-15.028,33.5-33.5,33.5
			s-33.5-15.028-33.5-33.5v-1.5H290z M223,186.912v-17.5c0-18.472,15.028-33.5,33.5-33.5s33.5,15.028,33.5,33.5v17.5H223z
			 M497,303.602c0,0.037,0,0.061-0.046,0.1c-0.045,0.04-0.069,0.035-0.104,0.031L387,287.915V178.679
			c0-4.107-3.164-7.688-7.269-7.811c-4.247-0.128-7.731,3.278-7.731,7.497v108.547H263.954l0.03-10h8.516c4.142,0,7.5-3.358,7.5-7.5
			v-23.593c14.895-8.287,25-24.186,25-42.407v-1.5h5.186c4.107,0,7.688-3.165,7.811-7.269c0.127-4.247-3.277-7.731-7.497-7.731H305
			v-16.686c0-26.558-21.011-48.802-47.564-49.305C230.267,120.406,208,142.358,208,169.412v17.5h-5.186
			c-4.107,0-7.688,3.165-7.811,7.269c-0.127,4.247,3.277,7.731,7.497,7.731h5.5v1.5c0,18.221,10.105,34.12,25,42.407v23.593
			c0,4.142,3.358,7.5,7.5,7.5h8.483l-0.03,10H140v-32.588c0-4.142-3.358-7.5-7.5-7.5c-4.142,0-7.5,3.358-7.5,7.5v33.59
			L16.622,303.521c-0.53,0.075-0.909-0.138-1.132-0.332c-0.224-0.194-0.49-0.538-0.49-1.074V80.709c0-0.536,0.267-0.88,0.49-1.074
			c0.191-0.166,0.497-0.348,0.915-0.348c0.069,0,0.142,0.005,0.217,0.016L125,94.91v115.754c0,4.142,3.358,7.5,7.5,7.5
			c4.142,0,7.5-3.358,7.5-7.5V95.912h232v38.478c0,4.107,3.164,7.688,7.269,7.811c4.247,0.128,7.731-3.278,7.731-7.497V94.91
			l109.85-15.818c0.035-0.004,0.06-0.009,0.104,0.031c0.046,0.04,0.046,0.063,0.046,0.1V303.602z"/>
	</g>
</g>
<g>
</g>
<g>
</g>
<g>
</g>
<g>
</g>
<g>
</g>
<g>
</g>
<g>
</g>
<g>
</g>
<g>
</g>
<g>
</g>
<g>
</g>
<g>
</g>
<g>
</g>
<g>
</g>
<g>
</g>
</svg>
